<svg width="53" height="10" viewBox="0 0 53 10" fill="none" xmlns="http://www.w3.org/2000/svg">
<path d="M8.26705 4.63636C8.12216 5.52557 7.84233 6.30682 7.42756 6.98011C7.01278 7.65341 6.50284 8.17898 5.89773 8.55682C5.29545 8.93182 4.63636 9.11932 3.92045 9.11932C3.19034 9.11932 2.58523 8.9304 2.10511 8.55256C1.62784 8.17472 1.29545 7.64915 1.10795 6.97585C0.920455 6.30256 0.897727 5.52273 1.03977 4.63636C1.19034 3.74716 1.47301 2.96591 1.88778 2.29261C2.3054 1.61932 2.81676 1.09517 3.42188 0.72017C4.02699 0.342329 4.6875 0.153409 5.40341 0.153409C6.11648 0.153409 6.71307 0.340909 7.19318 0.715909C7.67614 1.09091 8.0142 1.61506 8.20739 2.28835C8.40057 2.95881 8.42045 3.74148 8.26705 4.63636ZM7.99432 4.63636C8.13636 3.78977 8.12358 3.05114 7.95597 2.42045C7.78835 1.78977 7.48722 1.29972 7.05256 0.950284C6.62074 0.600852 6.0767 0.426136 5.42045 0.426136C4.75284 0.426136 4.13494 0.602272 3.56676 0.954545C2.99858 1.30682 2.51705 1.79972 2.12216 2.43324C1.73011 3.06392 1.46023 3.7983 1.3125 4.63636C1.1733 5.48011 1.18608 6.21733 1.35085 6.84801C1.51563 7.47869 1.81534 7.97017 2.25 8.32244C2.6875 8.67187 3.23864 8.84659 3.90341 8.84659C4.57955 8.84659 5.2017 8.66903 5.76989 8.31392C6.34091 7.95881 6.82102 7.46591 7.21023 6.83523C7.60227 6.2017 7.86364 5.46875 7.99432 4.63636ZM15.5444 2.45455C15.5984 1.85795 15.4521 1.3679 15.1055 0.984375C14.7589 0.600852 14.2461 0.409091 13.5671 0.409091C13.1239 0.409091 12.712 0.495738 12.3313 0.669034C11.9535 0.839488 11.6381 1.07386 11.3853 1.37216C11.1325 1.66761 10.9734 2.00568 10.908 2.38636C10.8711 2.60795 10.8739 2.8125 10.9165 3C10.962 3.18466 11.0472 3.35511 11.1722 3.51136C11.3001 3.66477 11.4691 3.80398 11.6793 3.92898C11.8924 4.05398 12.1467 4.16477 12.4421 4.26136L13.3796 4.56818C13.7376 4.68466 14.043 4.81534 14.2958 4.96023C14.5515 5.10511 14.7546 5.26705 14.9052 5.44602C15.0558 5.625 15.1566 5.82528 15.2077 6.04688C15.2617 6.26847 15.266 6.5142 15.2205 6.78409C15.1438 7.25284 14.9634 7.66477 14.6793 8.01989C14.3952 8.37216 14.0288 8.64631 13.5799 8.84233C13.1339 9.03835 12.6239 9.13636 12.0501 9.13636C11.5217 9.13636 11.0728 9.04403 10.7035 8.85938C10.3342 8.67188 10.06 8.41477 9.88104 8.08807C9.7049 7.75852 9.63814 7.38068 9.68075 6.95455H9.95348C9.91939 7.32955 9.98189 7.66051 10.141 7.94744C10.3029 8.23437 10.5501 8.45881 10.8825 8.62074C11.2148 8.78267 11.6211 8.86364 12.1012 8.86364C12.604 8.86364 13.0572 8.77557 13.4606 8.59943C13.864 8.4233 14.195 8.17898 14.4535 7.86648C14.7148 7.55398 14.8796 7.19318 14.9478 6.78409C14.9989 6.47159 14.9748 6.1946 14.8754 5.95312C14.7788 5.71165 14.5998 5.49858 14.3384 5.31392C14.0771 5.12926 13.7234 4.96591 13.2773 4.82386L12.3228 4.51705C11.6722 4.30682 11.2077 4.02557 10.9293 3.6733C10.6509 3.31818 10.5529 2.8892 10.6353 2.38636C10.7092 1.94602 10.8839 1.55682 11.1594 1.21875C11.4379 0.880682 11.7887 0.616477 12.212 0.426136C12.6353 0.232954 13.0984 0.136364 13.6012 0.136364C14.1012 0.136364 14.5245 0.235795 14.8711 0.434659C15.2177 0.633522 15.4734 0.90767 15.6381 1.2571C15.8029 1.60653 15.8626 2.00568 15.8171 2.45455H15.5444ZM20.5057 9L21.9545 0.272727H26.608L26.5568 0.545454H22.1761L21.5284 4.5H25.6534L25.6023 4.77273H21.4773L20.8295 8.72727H25.3295L25.2784 9H20.5057ZM30.4453 2.45455L30.3942 2.72727H27.8033L27.8544 2.45455H30.4453ZM29.0646 0.886364H29.3374L28.2294 7.61932C28.1839 7.875 28.2024 8.09517 28.2848 8.27983C28.3672 8.46165 28.4936 8.60227 28.6641 8.7017C28.8345 8.7983 29.0305 8.84659 29.2521 8.84659C29.3288 8.84659 29.4027 8.83949 29.4737 8.82528C29.5476 8.80824 29.6271 8.78693 29.7124 8.76136L29.7464 9.01705C29.6527 9.05114 29.5632 9.0767 29.478 9.09375C29.3956 9.1108 29.3033 9.11932 29.201 9.11932C28.9339 9.11932 28.6967 9.05824 28.4893 8.93608C28.2848 8.81392 28.1314 8.64062 28.0291 8.41619C27.9297 8.19176 27.9055 7.92614 27.9567 7.61932L29.0646 0.886364ZM32.6271 4.60227L31.8942 9H31.6214L33.0703 0.272727H33.343L32.8146 3.49432H32.8487C33.0533 3.15341 33.3487 2.88068 33.7351 2.67614C34.1243 2.47159 34.5447 2.36932 34.9964 2.36932C35.4339 2.36932 35.8047 2.46449 36.1087 2.65483C36.4126 2.84517 36.6314 3.10795 36.7649 3.44318C36.8984 3.77841 36.9283 4.16477 36.8544 4.60227L36.1214 9H35.8487L36.5817 4.60227C36.6754 4.02273 36.576 3.55114 36.2834 3.1875C35.9936 2.82386 35.5589 2.64205 34.9794 2.64205C34.593 2.64205 34.2322 2.72585 33.897 2.89347C33.5646 3.06108 33.2848 3.29261 33.0575 3.58807C32.8331 3.88352 32.6896 4.22159 32.6271 4.60227ZM38.4759 9L39.5668 2.45455H39.8395L38.7486 9H38.4759ZM39.9162 1.26136C39.831 1.26136 39.7628 1.23153 39.7116 1.17188C39.6634 1.11222 39.6463 1.03977 39.6605 0.954545C39.6719 0.894886 39.706 0.840909 39.7628 0.792614C39.8196 0.741477 39.8821 0.715909 39.9503 0.715909C40.0355 0.715909 40.1023 0.745738 40.1506 0.805397C40.2017 0.865056 40.2202 0.9375 40.206 1.02273C40.1946 1.08523 40.1605 1.14062 40.1037 1.18892C40.0469 1.23722 39.9844 1.26136 39.9162 1.26136ZM43.4371 9.13636C42.8974 9.13636 42.4457 8.98722 42.082 8.68892C41.7212 8.39062 41.467 7.9858 41.3192 7.47443C41.1715 6.96023 41.1502 6.38352 41.2553 5.74432C41.3604 5.09943 41.5735 4.52131 41.8945 4.00994C42.2156 3.49858 42.6076 3.09517 43.0707 2.79972C43.5366 2.50142 44.0337 2.35227 44.5621 2.35227C44.9599 2.35227 45.3079 2.4375 45.6062 2.60795C45.9045 2.77557 46.1374 3.01136 46.305 3.31534C46.4727 3.61648 46.5565 3.96591 46.5565 4.36364H46.2667C46.2667 3.82955 46.1104 3.40625 45.7979 3.09375C45.4883 2.78125 45.0763 2.625 44.5621 2.625C44.082 2.625 43.6289 2.76136 43.2028 3.03409C42.7795 3.30398 42.4187 3.6733 42.1204 4.14205C41.8249 4.6108 41.6275 5.14489 41.5281 5.74432C41.4315 6.32386 41.4442 6.84943 41.5664 7.32102C41.6914 7.79261 41.913 8.16761 42.2312 8.44602C42.5494 8.72443 42.9513 8.86364 43.4371 8.86364C43.7923 8.86364 44.1317 8.78977 44.4556 8.64205C44.7795 8.49432 45.0636 8.28693 45.3079 8.01989C45.5522 7.75284 45.7298 7.44318 45.8406 7.09091H46.1303C45.9968 7.50852 45.7937 7.87074 45.521 8.17756C45.2482 8.48153 44.9315 8.71733 44.5707 8.88494C44.2127 9.05256 43.8349 9.13636 43.4371 9.13636ZM52.5075 3.83523L52.2347 3.88636C52.1893 3.60227 52.104 3.3679 51.979 3.18324C51.854 2.99574 51.6879 2.85653 51.4805 2.76562C51.2759 2.67188 51.0273 2.625 50.7347 2.625C50.2006 2.625 49.7475 2.76278 49.3754 3.03835C49.0032 3.31392 48.7802 3.67045 48.7063 4.10795C48.6523 4.44602 48.7134 4.72727 48.8896 4.9517C49.0685 5.17614 49.3711 5.34375 49.7972 5.45455L50.7859 5.71023C51.2461 5.82955 51.5756 6.03693 51.7745 6.33239C51.9762 6.625 52.0444 6.97443 51.979 7.38068C51.9222 7.7358 51.7802 8.04545 51.5529 8.30966C51.3256 8.57102 51.0373 8.77415 50.6879 8.91903C50.3413 9.06392 49.9535 9.13636 49.5245 9.13636C48.9393 9.13636 48.4833 8.9929 48.1566 8.70597C47.8327 8.41903 47.658 8.01136 47.6325 7.48295L47.9052 7.44886C47.9222 7.90909 48.0685 8.25994 48.3441 8.50142C48.6197 8.7429 49.0131 8.86364 49.5245 8.86364C50.104 8.86364 50.5969 8.72017 51.0032 8.43324C51.4094 8.14347 51.6495 7.76989 51.7234 7.3125C51.7773 6.97727 51.7177 6.69744 51.5444 6.47301C51.3711 6.24858 51.0842 6.08523 50.6836 5.98295L49.712 5.72727C49.2262 5.59943 48.8739 5.3892 48.6552 5.09659C48.4393 4.80398 48.3654 4.4517 48.4336 4.03977C48.4904 3.7017 48.6239 3.40625 48.8342 3.15341C49.0444 2.90057 49.3114 2.70455 49.6353 2.56534C49.962 2.4233 50.3228 2.35227 50.7177 2.35227C51.2319 2.35227 51.6396 2.47869 51.9407 2.73153C52.2418 2.98153 52.4308 3.34943 52.5075 3.83523Z" fill="black"/>
</svg>
