<svg width="107" height="13" viewBox="0 0 107 13" fill="none" xmlns="http://www.w3.org/2000/svg">
<path d="M0.860795 10V1.27273H6.53693V2.59801H2.44176V4.96733H6.2429V6.29261H2.44176V8.67472H6.57102V10H0.860795ZM11.3501 3.45455V4.64773H7.58736V3.45455H11.3501ZM8.51634 1.88636H10.0589V8.03125C10.0589 8.23864 10.0902 8.39773 10.1527 8.50852C10.218 8.61648 10.3033 8.69034 10.4084 8.73011C10.5135 8.76989 10.63 8.78977 10.7578 8.78977C10.8544 8.78977 10.9425 8.78267 11.022 8.76847C11.1044 8.75426 11.1669 8.74148 11.2095 8.73011L11.4695 9.93608C11.3871 9.96449 11.2692 9.99574 11.1158 10.0298C10.9652 10.0639 10.7805 10.0838 10.5618 10.0895C10.1754 10.1009 9.82741 10.0426 9.51776 9.91477C9.2081 9.78409 8.96236 9.58239 8.78054 9.30966C8.60156 9.03693 8.51349 8.69602 8.51634 8.28693V1.88636ZM14.3235 6.16477V10H12.7809V1.27273H14.2894V4.56676H14.3661C14.5195 4.19744 14.7567 3.90625 15.0778 3.69318C15.4016 3.47727 15.8136 3.36932 16.3136 3.36932C16.7681 3.36932 17.1644 3.46449 17.5025 3.65483C17.8406 3.84517 18.1019 4.12358 18.2866 4.49006C18.4741 4.85653 18.5678 5.30398 18.5678 5.83239V10H17.0252V6.07102C17.0252 5.63068 16.9116 5.28835 16.6843 5.04403C16.4599 4.79687 16.1445 4.6733 15.7383 4.6733C15.4656 4.6733 15.2212 4.73295 15.0053 4.85227C14.7923 4.96875 14.6246 5.13778 14.5025 5.35938C14.3832 5.58097 14.3235 5.84943 14.3235 6.16477ZM20.1403 10V3.45455H21.6829V10H20.1403ZM20.9158 2.52557C20.6715 2.52557 20.4613 2.4446 20.2852 2.28267C20.109 2.1179 20.021 1.92045 20.021 1.69034C20.021 1.45739 20.109 1.25994 20.2852 1.09801C20.4613 0.933238 20.6715 0.850852 20.9158 0.850852C21.163 0.850852 21.3732 0.933238 21.5465 1.09801C21.7227 1.25994 21.8107 1.45739 21.8107 1.69034C21.8107 1.92045 21.7227 2.1179 21.5465 2.28267C21.3732 2.4446 21.163 2.52557 20.9158 2.52557ZM26.1243 10.1278C25.4709 10.1278 24.9098 9.98438 24.4411 9.69744C23.9751 9.41051 23.6158 9.0142 23.3629 8.50852C23.1129 8 22.9879 7.41477 22.9879 6.75284C22.9879 6.08807 23.1158 5.50142 23.3714 4.9929C23.6271 4.48153 23.9879 4.08381 24.4538 3.79972C24.9226 3.51278 25.4766 3.36932 26.1158 3.36932C26.647 3.36932 27.1172 3.46733 27.5263 3.66335C27.9382 3.85653 28.2663 4.13068 28.5107 4.4858C28.755 4.83807 28.8942 5.25 28.9283 5.72159H27.4538C27.3942 5.40625 27.2521 5.14347 27.0277 4.93324C26.8061 4.72017 26.5092 4.61364 26.1371 4.61364C25.8217 4.61364 25.5447 4.69886 25.3061 4.86932C25.0675 5.03693 24.8814 5.27841 24.7479 5.59375C24.6172 5.90909 24.5518 6.28693 24.5518 6.72727C24.5518 7.1733 24.6172 7.55682 24.7479 7.87784C24.8786 8.19602 25.0618 8.44176 25.2976 8.61506C25.5362 8.78551 25.8161 8.87074 26.1371 8.87074C26.3643 8.87074 26.5675 8.82812 26.7464 8.7429C26.9283 8.65483 27.0803 8.52841 27.2024 8.36364C27.3246 8.19886 27.4084 7.99858 27.4538 7.76278H28.9283C28.8913 8.22585 28.755 8.63636 28.5192 8.99432C28.2834 9.34943 27.9624 9.62784 27.5561 9.82955C27.1499 10.0284 26.6726 10.1278 26.1243 10.1278ZM32.0785 10.1321C31.6637 10.1321 31.2901 10.0582 30.9577 9.91051C30.6282 9.75994 30.3668 9.53835 30.1737 9.24574C29.9833 8.95312 29.8881 8.59233 29.8881 8.16335C29.8881 7.79403 29.9563 7.48864 30.0927 7.24716C30.229 7.00568 30.4151 6.8125 30.6509 6.66761C30.8867 6.52273 31.1523 6.41335 31.4478 6.33949C31.7461 6.26278 32.0543 6.20739 32.3725 6.1733C32.756 6.13352 33.0671 6.09801 33.3058 6.06676C33.5444 6.03267 33.7177 5.98153 33.8256 5.91335C33.9364 5.84233 33.9918 5.73295 33.9918 5.58523V5.55966C33.9918 5.23864 33.8967 4.99006 33.7063 4.81392C33.516 4.63778 33.2418 4.54972 32.8839 4.54972C32.506 4.54972 32.2063 4.6321 31.9847 4.79688C31.766 4.96165 31.6183 5.15625 31.5415 5.38068L30.1012 5.17614C30.2148 4.77841 30.4023 4.44602 30.6637 4.17898C30.9251 3.90909 31.2447 3.70739 31.6225 3.57386C32.0004 3.4375 32.418 3.36932 32.8754 3.36932C33.1907 3.36932 33.5046 3.40625 33.8171 3.48011C34.1296 3.55398 34.4151 3.67614 34.6737 3.84659C34.9322 4.0142 35.1396 4.2429 35.2958 4.53267C35.4549 4.82244 35.5344 5.18466 35.5344 5.61932V10H34.0515V9.10085H34.0004C33.9066 9.28267 33.7745 9.45312 33.604 9.61222C33.4364 9.76847 33.2248 9.89489 32.9691 9.99148C32.7163 10.0852 32.4194 10.1321 32.0785 10.1321ZM32.479 8.99858C32.7887 8.99858 33.0572 8.9375 33.2844 8.81534C33.5117 8.69034 33.6864 8.52557 33.8086 8.32102C33.9336 8.11648 33.9961 7.89347 33.9961 7.65199V6.88068C33.9478 6.92045 33.8654 6.95739 33.7489 6.99148C33.6353 7.02557 33.5075 7.0554 33.3654 7.08097C33.2234 7.10653 33.0827 7.12926 32.9435 7.14915C32.8043 7.16903 32.6836 7.18608 32.5813 7.20028C32.3512 7.23153 32.1452 7.28267 31.9634 7.35369C31.7816 7.42472 31.6381 7.52415 31.533 7.65199C31.4279 7.77699 31.3754 7.93892 31.3754 8.13778C31.3754 8.42188 31.479 8.63636 31.6864 8.78125C31.8938 8.92614 32.158 8.99858 32.479 8.99858ZM38.6282 1.27273V10H37.0856V1.27273H38.6282ZM40.4787 10V1.27273H43.4276C44.1122 1.27273 44.6719 1.39631 45.1065 1.64347C45.544 1.88778 45.8679 2.21875 46.0781 2.63636C46.2884 3.05398 46.3935 3.51989 46.3935 4.03409C46.3935 4.5483 46.2884 5.01562 46.0781 5.43608C45.8707 5.85653 45.5497 6.19176 45.1151 6.44176C44.6804 6.68892 44.1236 6.8125 43.4446 6.8125H41.331V5.875H43.4105C43.8793 5.875 44.2557 5.79403 44.5398 5.6321C44.8239 5.47017 45.0298 5.25142 45.1577 4.97585C45.2884 4.69744 45.3537 4.38352 45.3537 4.03409C45.3537 3.68466 45.2884 3.37216 45.1577 3.09659C45.0298 2.82102 44.8224 2.60511 44.5355 2.44886C44.2486 2.28977 43.8679 2.21023 43.3935 2.21023H41.5355V10H40.4787ZM47.9595 10V3.45455H48.9311V4.44318H48.9993C49.1186 4.11932 49.3345 3.85653 49.647 3.65483C49.9595 3.45312 50.3118 3.35227 50.7038 3.35227C50.7777 3.35227 50.87 3.35369 50.9808 3.35653C51.0916 3.35937 51.1754 3.36364 51.2322 3.36932V4.39205C51.1982 4.38352 51.12 4.37074 50.9979 4.35369C50.8786 4.33381 50.7521 4.32386 50.6186 4.32386C50.3004 4.32386 50.0163 4.39062 49.7663 4.52415C49.5192 4.65483 49.3232 4.83665 49.1783 5.0696C49.0362 5.29972 48.9652 5.5625 48.9652 5.85795V10H47.9595ZM54.9695 10.1364C54.3388 10.1364 53.7947 9.99716 53.3374 9.71875C52.8828 9.4375 52.532 9.04545 52.2848 8.54261C52.0405 8.03693 51.9183 7.44886 51.9183 6.77841C51.9183 6.10795 52.0405 5.51705 52.2848 5.00568C52.532 4.49148 52.8757 4.09091 53.3161 3.80398C53.7592 3.5142 54.2763 3.36932 54.8672 3.36932C55.2081 3.36932 55.5447 3.42614 55.8771 3.53977C56.2095 3.65341 56.5121 3.83807 56.7848 4.09375C57.0575 4.34659 57.2749 4.68182 57.4368 5.09943C57.5987 5.51705 57.6797 6.03125 57.6797 6.64205V7.06818H52.6342V6.19886H56.657C56.657 5.82955 56.5831 5.5 56.4354 5.21023C56.2905 4.92045 56.0831 4.69176 55.8132 4.52415C55.5462 4.35653 55.2308 4.27273 54.8672 4.27273C54.4666 4.27273 54.12 4.37216 53.8274 4.57102C53.5376 4.76705 53.3146 5.02273 53.1584 5.33807C53.0021 5.65341 52.924 5.99148 52.924 6.35227V6.93182C52.924 7.42614 53.0092 7.84517 53.1797 8.18892C53.353 8.52983 53.593 8.78977 53.8999 8.96875C54.2067 9.14489 54.5632 9.23295 54.9695 9.23295C55.2337 9.23295 55.4723 9.19602 55.6854 9.12216C55.9013 9.04545 56.0874 8.93182 56.2436 8.78125C56.3999 8.62784 56.5206 8.4375 56.6058 8.21023L57.5774 8.48295C57.4751 8.8125 57.3033 9.10227 57.0618 9.35227C56.8203 9.59943 56.522 9.79261 56.1669 9.93182C55.8118 10.0682 55.4126 10.1364 54.9695 10.1364ZM61.8686 10.1364C61.255 10.1364 60.7266 9.99148 60.2834 9.7017C59.8402 9.41193 59.4993 9.01278 59.2607 8.50426C59.022 7.99574 58.9027 7.41477 58.9027 6.76136C58.9027 6.09659 59.0249 5.50994 59.2692 5.00142C59.5163 4.49006 59.8601 4.09091 60.3004 3.80398C60.7436 3.5142 61.2607 3.36932 61.8516 3.36932C62.3118 3.36932 62.7266 3.45455 63.0959 3.625C63.4652 3.79545 63.7678 4.03409 64.0036 4.34091C64.2393 4.64773 64.3857 5.00568 64.4425 5.41477H63.4368C63.3601 5.11648 63.1896 4.85227 62.9254 4.62216C62.6641 4.3892 62.3118 4.27273 61.8686 4.27273C61.4766 4.27273 61.1328 4.375 60.8374 4.57955C60.5447 4.78125 60.3161 5.06676 60.1513 5.43608C59.9893 5.80256 59.9084 6.23295 59.9084 6.72727C59.9084 7.23295 59.9879 7.6733 60.147 8.0483C60.3089 8.4233 60.5362 8.71449 60.8288 8.92188C61.1243 9.12926 61.4709 9.23295 61.8686 9.23295C62.13 9.23295 62.3672 9.1875 62.5803 9.09659C62.7933 9.00568 62.9737 8.875 63.1214 8.70455C63.2692 8.53409 63.3743 8.32955 63.4368 8.09091H64.4425C64.3857 8.47727 64.245 8.82528 64.0206 9.13494C63.799 9.44176 63.505 9.68608 63.1385 9.8679C62.7749 10.0469 62.3516 10.1364 61.8686 10.1364ZM68.657 10.1364C68.0263 10.1364 67.4822 9.99716 67.0249 9.71875C66.5703 9.4375 66.2195 9.04545 65.9723 8.54261C65.728 8.03693 65.6058 7.44886 65.6058 6.77841C65.6058 6.10795 65.728 5.51705 65.9723 5.00568C66.2195 4.49148 66.5632 4.09091 67.0036 3.80398C67.4467 3.5142 67.9638 3.36932 68.5547 3.36932C68.8956 3.36932 69.2322 3.42614 69.5646 3.53977C69.897 3.65341 70.1996 3.83807 70.4723 4.09375C70.745 4.34659 70.9624 4.68182 71.1243 5.09943C71.2862 5.51705 71.3672 6.03125 71.3672 6.64205V7.06818H66.3217V6.19886H70.3445C70.3445 5.82955 70.2706 5.5 70.1229 5.21023C69.978 4.92045 69.7706 4.69176 69.5007 4.52415C69.2337 4.35653 68.9183 4.27273 68.5547 4.27273C68.1541 4.27273 67.8075 4.37216 67.5149 4.57102C67.2251 4.76705 67.0021 5.02273 66.8459 5.33807C66.6896 5.65341 66.6115 5.99148 66.6115 6.35227V6.93182C66.6115 7.42614 66.6967 7.84517 66.8672 8.18892C67.0405 8.52983 67.2805 8.78977 67.5874 8.96875C67.8942 9.14489 68.2507 9.23295 68.657 9.23295C68.9212 9.23295 69.1598 9.19602 69.3729 9.12216C69.5888 9.04545 69.7749 8.93182 69.9311 8.78125C70.0874 8.62784 70.2081 8.4375 70.2933 8.21023L71.2649 8.48295C71.1626 8.8125 70.9908 9.10227 70.7493 9.35227C70.5078 9.59943 70.2095 9.79261 69.8544 9.93182C69.4993 10.0682 69.1001 10.1364 68.657 10.1364ZM72.897 12.4545V3.45455H73.8686V4.49432H73.9879C74.0618 4.38068 74.1641 4.2358 74.2947 4.05966C74.4283 3.88068 74.6186 3.72159 74.8658 3.58239C75.1158 3.44034 75.4538 3.36932 75.88 3.36932C76.4311 3.36932 76.9169 3.5071 77.3374 3.78267C77.7578 4.05824 78.0859 4.44886 78.3217 4.95455C78.5575 5.46023 78.6754 6.05682 78.6754 6.74432C78.6754 7.4375 78.5575 8.03835 78.3217 8.54688C78.0859 9.05256 77.7592 9.4446 77.3416 9.72301C76.924 9.99858 76.4425 10.1364 75.897 10.1364C75.4766 10.1364 75.1399 10.0668 74.8871 9.92756C74.6342 9.78551 74.4396 9.625 74.3033 9.44602C74.1669 9.2642 74.0618 9.11364 73.9879 8.99432H73.9027V12.4545H72.897ZM73.8857 6.72727C73.8857 7.22159 73.9581 7.65767 74.103 8.03551C74.2479 8.41051 74.4595 8.70455 74.7379 8.91761C75.0163 9.12784 75.3572 9.23295 75.7607 9.23295C76.1811 9.23295 76.532 9.12216 76.8132 8.90057C77.0973 8.67614 77.3104 8.375 77.4524 7.99716C77.5973 7.61648 77.6697 7.19318 77.6697 6.72727C77.6697 6.26705 77.5987 5.85227 77.4567 5.48295C77.3175 5.1108 77.1058 4.81676 76.8217 4.60085C76.5405 4.3821 76.1868 4.27273 75.7607 4.27273C75.3516 4.27273 75.0078 4.37642 74.7294 4.58381C74.451 4.78835 74.2408 5.07528 74.0987 5.4446C73.9567 5.81108 73.8857 6.23864 73.8857 6.72727ZM83.0561 3.45455V4.30682H79.6641V3.45455H83.0561ZM80.6527 1.88636H81.6584V8.125C81.6584 8.40909 81.6996 8.62216 81.782 8.7642C81.8672 8.90341 81.9751 8.99716 82.1058 9.04545C82.2393 9.09091 82.38 9.11364 82.5277 9.11364C82.6385 9.11364 82.7294 9.10795 82.8004 9.09659C82.8714 9.08239 82.9283 9.07102 82.9709 9.0625L83.1754 9.96591C83.1072 9.99148 83.0121 10.017 82.8899 10.0426C82.7678 10.071 82.6129 10.0852 82.4254 10.0852C82.1413 10.0852 81.8629 10.0241 81.5902 9.90199C81.3203 9.77983 81.0959 9.59375 80.9169 9.34375C80.7408 9.09375 80.6527 8.77841 80.6527 8.39773V1.88636ZM84.5689 10V3.45455H85.5746V10H84.5689ZM85.0803 2.36364C84.8842 2.36364 84.7152 2.29688 84.5732 2.16335C84.4339 2.02983 84.3643 1.86932 84.3643 1.68182C84.3643 1.49432 84.4339 1.33381 84.5732 1.20028C84.7152 1.06676 84.8842 1 85.0803 1C85.2763 1 85.4439 1.06676 85.5831 1.20028C85.7251 1.33381 85.7962 1.49432 85.7962 1.68182C85.7962 1.86932 85.7251 2.02983 85.5831 2.16335C85.4439 2.29688 85.2763 2.36364 85.0803 2.36364ZM90.0756 10.1364C89.4847 10.1364 88.9663 9.99574 88.5202 9.71449C88.0771 9.43324 87.7305 9.03977 87.4805 8.53409C87.2333 8.02841 87.1097 7.4375 87.1097 6.76136C87.1097 6.07955 87.2333 5.48437 87.4805 4.97585C87.7305 4.46733 88.0771 4.07244 88.5202 3.79119C88.9663 3.50994 89.4847 3.36932 90.0756 3.36932C90.6665 3.36932 91.1836 3.50994 91.6268 3.79119C92.0728 4.07244 92.4194 4.46733 92.6665 4.97585C92.9165 5.48437 93.0415 6.07955 93.0415 6.76136C93.0415 7.4375 92.9165 8.02841 92.6665 8.53409C92.4194 9.03977 92.0728 9.43324 91.6268 9.71449C91.1836 9.99574 90.6665 10.1364 90.0756 10.1364ZM90.0756 9.23295C90.5245 9.23295 90.8938 9.1179 91.1836 8.88778C91.4734 8.65767 91.6879 8.35511 91.8271 7.98011C91.9663 7.60511 92.0359 7.19886 92.0359 6.76136C92.0359 6.32386 91.9663 5.91619 91.8271 5.53835C91.6879 5.16051 91.4734 4.85511 91.1836 4.62216C90.8938 4.3892 90.5245 4.27273 90.0756 4.27273C89.6268 4.27273 89.2575 4.3892 88.9677 4.62216C88.6779 4.85511 88.4634 5.16051 88.3242 5.53835C88.185 5.91619 88.1154 6.32386 88.1154 6.76136C88.1154 7.19886 88.185 7.60511 88.3242 7.98011C88.4634 8.35511 88.6779 8.65767 88.9677 8.88778C89.2575 9.1179 89.6268 9.23295 90.0756 9.23295ZM95.5824 6.0625V10H94.5767V3.45455H95.5483V4.47727H95.6335C95.7869 4.14489 96.0199 3.87784 96.3324 3.67614C96.6449 3.47159 97.0483 3.36932 97.5426 3.36932C97.9858 3.36932 98.3736 3.46023 98.706 3.64205C99.0384 3.82102 99.2969 4.09375 99.4815 4.46023C99.6662 4.82386 99.7585 5.28409 99.7585 5.84091V10H98.7528V5.90909C98.7528 5.39489 98.6193 4.99432 98.3523 4.70739C98.0852 4.41761 97.7188 4.27273 97.2528 4.27273C96.9318 4.27273 96.6449 4.34233 96.392 4.48153C96.142 4.62074 95.9446 4.82386 95.7997 5.09091C95.6548 5.35795 95.5824 5.68182 95.5824 6.0625ZM106.233 4.92045L105.329 5.17614C105.272 5.02557 105.189 4.87926 105.078 4.73722C104.97 4.59233 104.822 4.47301 104.635 4.37926C104.447 4.28551 104.207 4.23864 103.914 4.23864C103.514 4.23864 103.18 4.33097 102.913 4.51562C102.649 4.69744 102.517 4.92898 102.517 5.21023C102.517 5.46023 102.608 5.65767 102.789 5.80256C102.971 5.94744 103.255 6.06818 103.642 6.16477L104.613 6.40341C105.199 6.54545 105.635 6.76278 105.922 7.0554C106.208 7.34517 106.352 7.71875 106.352 8.17614C106.352 8.55114 106.244 8.88636 106.028 9.18182C105.815 9.47727 105.517 9.71023 105.133 9.88068C104.75 10.0511 104.304 10.1364 103.795 10.1364C103.127 10.1364 102.575 9.99148 102.137 9.7017C101.7 9.41193 101.423 8.98864 101.306 8.43182L102.261 8.19318C102.352 8.54545 102.524 8.80966 102.777 8.9858C103.032 9.16193 103.366 9.25 103.778 9.25C104.247 9.25 104.619 9.15057 104.895 8.9517C105.173 8.75 105.312 8.50852 105.312 8.22727C105.312 8 105.233 7.80966 105.074 7.65625C104.914 7.5 104.67 7.38352 104.341 7.30682L103.25 7.05114C102.65 6.90909 102.21 6.68892 101.929 6.39062C101.65 6.08949 101.511 5.71307 101.511 5.26136C101.511 4.89205 101.615 4.56534 101.822 4.28125C102.032 3.99716 102.318 3.77415 102.679 3.61222C103.042 3.45028 103.454 3.36932 103.914 3.36932C104.562 3.36932 105.071 3.51136 105.44 3.79545C105.812 4.07955 106.076 4.45455 106.233 4.92045Z" fill="black"/>
</svg>
